<svg width="47" height="61" viewBox="0 0 47 61" fill="none" xmlns="http://www.w3.org/2000/svg">
<path d="M21.659 18.0307C22.0777 18.6589 22.6185 19.3046 23.3688 19.3046C24.276 19.3046 24.782 18.3622 24.9565 18.0656C26.4569 15.3433 27.3816 12.3069 23.9096 8.45026L23.3688 7.85693L22.793 8.43281C19.9491 11.3296 19.5304 14.8372 21.659 18.0307ZM23.3164 10.143C25.3927 12.8129 24.9739 14.907 23.613 17.3501C23.4909 17.5595 23.4037 17.6817 23.3513 17.734C23.2641 17.6642 23.1245 17.5071 22.9326 17.193C21.3449 14.8023 21.4845 12.3767 23.3164 10.143Z" fill="#0E0E0E"/>
<path d="M3.56588 21.0838C4.31611 21.6596 5.25826 21.7294 6.00849 21.7992L6.2702 21.8167C6.8634 21.8691 7.52639 22.0261 8.27662 22.2879C8.10215 22.6892 8.03236 23.1604 8.1196 23.649C8.25918 24.539 8.83493 25.429 9.53282 25.8827C9.65495 25.9525 9.79453 26.0049 9.9341 26.0049C10.1958 26.0049 10.4401 25.8827 10.5797 25.6384C10.8065 25.2894 10.7018 24.8182 10.3354 24.5914C10.0562 24.4168 9.70729 23.9282 9.62006 23.4222C9.60261 23.2651 9.60261 23.0557 9.68984 22.8986C10.0213 23.0557 10.3354 23.2477 10.6843 23.4745C10.7716 23.5269 10.8763 23.5967 10.9635 23.649C11.5044 24.0329 12.0627 24.4867 12.621 25.0276C12.8652 25.2545 13.092 25.4988 13.3189 25.7256C13.7725 26.1968 14.2261 26.6854 14.8019 27.1042C15.1334 27.3486 15.4823 27.5929 15.8487 27.8023C16.1453 27.9768 16.4942 28.1338 16.9304 28.2734C18.0296 28.6574 19.1113 28.8493 20.1582 28.8493C20.5071 28.8493 20.856 28.8319 21.1875 28.7795C21.5016 28.7446 22.182 28.6574 22.4961 28.0466C22.7054 27.6452 22.6705 27.1217 22.5484 26.8076C22.3565 26.2841 21.9552 26.0747 21.711 25.9525C21.6761 25.9351 21.6412 25.9176 21.6237 25.9002C21.6237 25.8653 21.6412 25.8478 21.6412 25.8129C21.6935 25.5337 21.6935 25.2719 21.6935 24.9927C21.6935 24.8008 21.6935 24.5914 21.7284 24.4168C21.7633 24.19 21.8331 24.1027 22.1122 23.8235L22.4612 23.4047C22.6705 22.9684 22.9323 22.7241 23.351 22.602C23.9267 22.41 24.5723 22.4798 25.1829 22.7939C26.0379 23.2302 26.16 23.7712 26.1774 24.1551C26.1949 24.6088 26.0727 24.9404 25.7761 25.2196C25.4272 25.5511 25.0259 25.8478 24.677 26.0921C24.2408 26.4062 24.0314 26.8425 24.0489 27.4358C24.0663 27.9419 24.3106 28.5701 25.4795 28.6923L25.6017 28.7097C26.5613 28.8144 27.5558 28.9017 28.62 28.6748C29.7192 28.4305 30.8009 27.907 31.8478 27.1217C32.4235 26.7029 32.8946 26.2143 33.3308 25.7431C33.5576 25.4988 33.7844 25.2719 34.0287 25.0451C35.0232 24.1027 36.0002 23.3873 36.9423 22.9335C37.0296 23.0906 37.047 23.3 37.0121 23.4571C36.9249 23.9631 36.5759 24.4517 36.2968 24.6437C35.9304 24.8706 35.8257 25.3417 36.0525 25.6907C36.1921 25.9176 36.4538 26.0572 36.6981 26.0572C36.8377 26.0572 36.9772 26.0223 37.0994 25.9351C37.7973 25.4988 38.3556 24.6088 38.5126 23.7014C38.5998 23.2128 38.53 22.7416 38.3556 22.3402C39.1058 22.0785 39.7688 21.9214 40.362 21.8691L40.6237 21.8516C41.3739 21.7818 42.3161 21.6945 43.0489 21.1361C43.5548 20.7522 43.9038 20.1065 44.0433 19.3213C44.305 17.7856 43.6072 16.6339 43.014 15.6043C42.8046 15.2378 42.5778 14.8539 42.4033 14.47C42.4033 14.4525 42.2288 14.0512 42.1939 13.9465C41.2169 11.8349 39.699 9.65359 35.5291 10.0899L34.7091 10.1073L34.8312 10.91C35.3372 14.121 37.396 16.0405 40.4667 16.1801C40.5714 16.1801 40.6586 16.1801 40.7458 16.1801C40.9029 16.1801 41.2169 16.1801 41.5309 16.0754C41.5833 16.1627 41.6182 16.2325 41.6705 16.3197C42.2288 17.2795 42.6825 18.0299 42.5254 19.0071C42.4556 19.3911 42.3161 19.7052 42.1242 19.8622C41.7403 20.1589 41.0948 20.2112 40.4841 20.2636L40.205 20.281C39.1756 20.3857 38.059 20.6999 36.6806 21.2757C36.1747 21.5026 35.6512 21.7818 35.1278 22.1308C35.1278 22.1308 35.1104 22.1308 35.0929 22.1483C33.767 22.9859 32.8597 23.4745 31.6035 23.0557C31.4465 23.0033 31.2546 22.9161 31.0626 22.8114C30.8533 22.6892 30.6614 22.5322 30.4869 22.3577C30.6439 22.2879 30.8009 22.1832 30.9754 22.0785C33.1737 20.5428 35.2325 18.344 33.924 13.8068L33.6972 13.0216L32.9295 13.3008C32.3188 13.5102 31.778 13.7894 31.2895 14.1035C30.5043 13.039 30.2426 11.6255 30.5916 10.2818C30.9754 8.79851 32.0397 7.68167 33.4355 7.29775C34.9708 6.86149 36.1049 6.89639 37.1517 7.41991C37.5355 7.61187 37.9892 7.45481 38.1811 7.0709C38.373 6.68698 38.216 6.23326 37.8321 6.04131C36.0176 5.13387 34.2206 5.48289 33.0167 5.81445C32.5457 5.95405 32.1095 6.14601 31.6907 6.39032C31.6733 6.32052 31.6733 6.25071 31.6558 6.18091C30.9929 2.74313 28.4979 0.736307 24.7991 0.666504L23.9965 0.666504L24.0314 1.46923C24.2408 6.19836 26.8928 7.61187 29.4749 8.36224C29.5622 8.37969 29.632 8.39714 29.7018 8.4146C29.4575 8.86831 29.2481 9.33948 29.1086 9.863C28.6375 11.6779 29.0039 13.58 30.0682 14.9935C28.5677 16.407 27.8873 18.3789 28.2013 20.6824C28.306 21.4851 28.5328 22.3926 29.0388 23.0382C29.3703 23.4571 29.8064 23.841 30.295 24.1202C30.5741 24.2772 30.8533 24.4168 31.1324 24.5041C31.4814 24.6263 31.8129 24.6786 32.1269 24.6961C31.7256 25.1149 31.3418 25.5162 30.8882 25.8478C30.0158 26.5109 29.1086 26.9297 28.2362 27.1392C27.4336 27.3137 26.6136 27.2439 25.7413 27.1566C26.0727 26.9123 26.4391 26.6331 26.7881 26.3015C27.4162 25.7256 27.7128 24.9404 27.6604 24.0329C27.6255 23.2477 27.2766 22.1483 25.8459 21.3979C24.8689 20.8918 23.8395 20.7871 22.8625 21.1012C22.0773 21.3455 21.5016 21.8342 21.1177 22.5845L20.9782 22.7416C20.6467 23.0906 20.3152 23.4571 20.2105 24.1376C20.1582 24.4168 20.1582 24.6786 20.1582 24.9578C20.1582 25.1498 20.1582 25.3592 20.1233 25.5511C20.0709 25.8827 19.9662 26.476 20.5245 26.9821C20.6641 27.1042 20.8211 27.1915 20.9433 27.2613C19.8441 27.3835 18.6577 27.2439 17.4189 26.825C17.1049 26.7203 16.8432 26.5982 16.6338 26.476C16.3198 26.2841 16.0232 26.0747 15.7266 25.8653C15.2729 25.5337 14.8891 25.1323 14.4878 24.7135C14.8019 24.6786 15.1334 24.6263 15.4649 24.5216C15.7266 24.4343 16.0057 24.3121 16.3023 24.1376C16.7908 23.8584 17.227 23.4745 17.5585 23.0557C18.0645 22.41 18.2913 21.5026 18.396 20.6999C18.71 18.3789 18.0296 16.4244 16.5291 15.0109C17.5934 13.58 17.9598 11.6779 17.4713 9.88045C17.3317 9.35693 17.1398 8.86831 16.8781 8.43205C16.9479 8.4146 17.0351 8.39715 17.1049 8.37969C19.6871 7.61187 22.3391 6.19836 22.5484 1.46923L22.6008 0.666504L21.7982 0.683955C18.0994 0.736307 15.6044 2.74313 14.9414 6.18091C14.924 6.25071 14.924 6.32052 14.9066 6.39032C14.5053 6.14601 14.0691 5.95405 13.598 5.81445C12.3942 5.48289 10.5971 5.13387 8.78259 6.04131C8.39875 6.23326 8.24173 6.68698 8.43365 7.0709C8.62557 7.45481 9.07919 7.59441 9.46303 7.41991C10.5099 6.89639 11.6439 6.86149 13.1793 7.29775C14.5576 7.68167 15.6219 8.79851 16.0057 10.2818C16.3547 11.643 16.093 13.0565 15.3078 14.1035C14.8193 13.8068 14.2785 13.5276 13.6678 13.3008L12.9001 13.039L12.6733 13.8243C11.3648 18.3615 13.4235 20.5603 15.6219 22.0959C15.7964 22.2181 15.9534 22.3053 16.1104 22.3751C15.9359 22.5496 15.744 22.7067 15.5346 22.8288C15.3427 22.9335 15.1508 23.0208 14.9938 23.0731C13.8248 23.4571 12.9525 23.0557 11.7486 22.3228C11.138 21.904 10.5273 21.5549 9.9341 21.3106C8.55578 20.7173 7.43916 20.4032 6.40977 20.3159L6.13062 20.281C5.51997 20.2287 4.87442 20.1763 4.47314 19.8622C4.28122 19.7226 4.14164 19.4085 4.07185 19.0246C3.91483 18.0474 4.35101 17.2795 4.92676 16.3197C4.97911 16.2499 5.014 16.1627 5.06634 16.0754C5.38039 16.1976 5.69444 16.1976 5.85146 16.1976C5.9387 16.1976 6.04338 16.1976 6.13062 16.1976C9.20132 16.058 11.2601 14.1384 11.7661 10.9275L11.8882 10.1248L11.1031 10.0375C6.93319 9.61869 5.39784 11.7826 4.43824 13.8941C4.31611 14.1559 4.22888 14.4351 4.10675 14.6968C3.94972 14.9935 3.7927 15.2727 3.61823 15.5694C3.00757 16.599 2.32713 17.7681 2.58884 19.2864C2.71097 20.0716 3.05992 20.7173 3.56588 21.0838ZM40.5365 14.6619C38.4602 14.5572 37.0819 13.4753 36.5236 11.5208C38.9139 11.5208 39.9258 12.6726 40.7807 14.5398C40.8156 14.5921 40.8156 14.627 40.8331 14.6619C40.7633 14.6619 40.6586 14.6619 40.5365 14.6619ZM29.9111 6.91384C27.5558 6.21581 26.003 5.16877 25.6366 2.27196C28.1315 2.56863 29.6843 3.99958 30.1728 6.47757C30.2252 6.72188 30.2426 6.87894 30.2426 6.98364C30.1554 6.98364 30.0507 6.94874 29.9111 6.91384ZM30.103 20.8395C29.9809 20.9267 29.8937 20.9791 29.8239 21.014C29.789 20.9093 29.7541 20.7522 29.7192 20.5079C29.3877 18.0125 30.3996 16.1452 32.6678 15.0633C33.2435 17.9427 32.1095 19.426 30.103 20.8395ZM16.4419 6.47757C16.913 3.99958 18.4832 2.55117 20.9782 2.27196C20.6118 5.16877 19.059 6.23326 16.7036 6.91384C16.5466 6.94874 16.4594 6.98364 16.3721 6.98364C16.3896 6.87894 16.407 6.72188 16.4419 6.47757ZM13.947 15.0633C16.2151 16.1452 17.227 17.995 16.8955 20.5079C16.8606 20.7522 16.8257 20.9093 16.7908 21.014C16.7211 20.9791 16.6338 20.9267 16.5117 20.8395C14.5053 19.426 13.3538 17.9427 13.947 15.0633ZM5.81657 14.5398C6.67148 12.6726 7.68342 11.5208 10.0737 11.5208C9.49793 13.4927 8.13705 14.5747 6.06083 14.6619C5.95615 14.6619 5.85146 14.6619 5.76423 14.6619C5.78168 14.627 5.79912 14.5921 5.81657 14.5398Z" fill="#0E0E0E"/>
<path d="M42.1419 31.1003C41.5836 31.0654 41.0253 31.0131 40.6065 30.8909C42.77 30.0009 44.916 28.5176 44.6892 24.4167L44.6368 23.614L43.8343 23.7013C41.0427 24.0328 39.1759 25.5685 38.5478 27.9592C38.2512 29.0935 37.9894 30.507 38.7746 31.5017C39.5248 32.444 40.7984 32.5313 42.0372 32.636C43.747 32.7581 44.567 32.9327 44.7938 33.8924C45.0556 35.0965 45.1777 36.6147 45.0556 38.1329C44.5147 37.0161 43.5028 35.9691 41.6534 35.1663L40.9031 34.8348L40.6065 35.5677C39.4899 38.6041 40.3274 41.2915 42.9444 42.9319C43.1015 43.0366 43.2585 43.1064 43.3981 43.1762C43.0666 43.6125 42.7002 43.9789 42.264 44.293C41.3219 44.9387 40.5193 45.3575 39.8214 45.5669C38.8618 45.8461 37.9894 46.0032 37.2567 46.0206C35.8434 46.0206 34.5349 45.7589 33.4532 45.2528L33.2089 45.1481C32.3366 44.7467 31.5514 44.3454 31.5863 43.787C31.6212 43.1762 32.5808 42.8621 33.4881 42.6178C34.8315 42.2513 38.8967 41.117 39.0188 36.7369C39.0712 34.6777 38.1639 32.4266 36.0179 31.8158C35.4945 31.6588 34.8664 31.7286 34.3604 31.9205C32.1621 32.7581 29.9289 34.1716 30.0684 38.3249L30.1033 39.1276L30.9059 39.0578C34.1162 38.7612 36.1575 36.859 36.5239 33.8401C37.2218 34.5207 37.5358 35.6375 37.5009 36.702C37.4311 38.988 36.1226 40.3143 33.0868 41.1519C32.1446 41.4137 30.1731 41.9546 30.0684 43.6997C29.9637 45.3575 31.6038 46.1079 32.5808 46.5442L32.6332 46.5616C31.6387 47.0328 30.9408 48.0449 30.9408 49.2141C30.9408 50.8196 32.2493 52.1458 33.8719 52.1458C35.4945 52.1458 36.803 50.837 36.803 49.2141C36.803 48.5684 36.5937 47.9926 36.2447 47.5039C36.5937 47.5389 36.9426 47.5563 37.309 47.5563C38.1814 47.5389 39.1933 47.3643 40.2925 47.0502C40.6763 46.9455 41.0776 46.771 41.4963 46.5616C41.0427 49.2665 40.0831 51.2907 38.286 53.4546C36.6809 55.3916 34.8839 56.7179 32.86 57.4508C32.0051 57.7649 31.2025 58.0616 30.3301 58.2536C29.5974 58.4281 28.8297 58.6026 28.1143 58.4804C27.6956 58.4106 27.2594 58.2536 26.8058 58.079C26.5441 57.9918 26.2998 57.8871 26.0381 57.7998C25.8288 57.73 25.6368 57.5904 25.5496 57.4159C25.4798 57.2938 25.4798 57.1716 25.5147 57.0495C25.5322 56.9971 25.5496 56.9448 25.5845 56.8924C25.6368 56.7528 25.7066 56.5783 25.759 56.3689C25.8113 56.0722 25.7764 55.3916 25.7764 55.1299C25.7066 53.9781 25.5496 53.0533 25.3926 52.2331C25.2356 51.3954 25.1134 50.68 25.096 49.8772C25.096 49.2839 24.9913 48.8651 24.8866 48.4463C24.8343 48.2194 24.7819 47.9926 24.7296 47.7134C24.6947 47.5214 24.6772 47.3294 24.6598 47.1375C24.6424 46.9106 24.6075 46.6838 24.5726 46.4744C24.4504 45.7414 24.1538 42.0244 24.1364 41.6056C24.1364 41.5358 24.1189 41.4835 24.084 41.4137C24.084 41.3962 24.084 41.3613 24.0666 41.3439C24.0317 41.2741 23.9968 41.2217 23.9445 41.1519C23.927 41.1345 23.927 41.117 23.9096 41.0996C23.8572 41.0472 23.8049 41.0123 23.7525 40.9774C23.7351 40.96 23.7002 40.9425 23.6828 40.9251C23.6304 40.9076 23.5606 40.8902 23.5083 40.8727C23.4734 40.8727 23.4385 40.8553 23.3513 40.8553C23.264 40.8553 23.1768 40.8902 23.0896 40.9251C23.0372 40.9425 23.0023 40.9774 22.95 41.0123C22.9151 41.0472 22.8627 41.0647 22.8278 41.0996L22.8104 41.117C22.7581 41.1868 22.7057 41.2566 22.6708 41.3439C22.6708 41.3613 22.6708 41.3613 22.6708 41.3788C22.6534 41.4486 22.6185 41.5184 22.6185 41.5882C22.601 42.0244 22.3044 45.7414 22.1823 46.4569C22.1474 46.6663 22.13 46.8932 22.1125 47.1026C22.0951 47.312 22.0776 47.5039 22.0427 47.7134C22.0078 47.9926 21.938 48.2194 21.8857 48.4463C21.781 48.8651 21.6763 49.2839 21.6763 49.8772C21.6589 50.68 21.5368 51.4129 21.3797 52.2331C21.2227 53.0533 21.0657 53.9781 20.9959 55.1299C20.9784 55.4091 20.961 56.0722 21.0133 56.3689C21.0482 56.5783 21.118 56.7353 21.1704 56.8749C21.1878 56.9273 21.2227 56.9797 21.2402 57.0495C21.275 57.1716 21.275 57.2938 21.2053 57.4159C21.118 57.5904 20.9261 57.73 20.7167 57.7998C20.455 57.8871 20.2108 57.9743 19.9491 58.0616C19.4954 58.2361 19.0767 58.3932 18.6405 58.463C17.9426 58.5851 17.175 58.4106 16.4422 58.2361C15.5698 58.0267 14.7672 57.7475 13.8251 57.3985C11.9059 56.7004 10.1089 55.3567 8.48626 53.4197C6.60197 51.2733 5.65982 49.249 5.20619 46.5616C5.60748 46.7536 5.99132 46.9106 6.35771 47.0153C7.45688 47.3469 8.46882 47.5214 9.35862 47.5214C9.70757 47.5214 10.0565 47.5039 10.4055 47.469C10.0565 47.9577 9.84714 48.5335 9.84714 49.1792C9.84714 50.7847 11.1557 52.1109 12.7783 52.1109C14.3834 52.1109 15.7094 50.8021 15.7094 49.1792C15.7094 48.01 15.0115 46.9979 14.017 46.5267L14.0694 46.5093C15.0464 46.0555 16.6864 45.3226 16.5818 43.6648C16.4771 41.9197 14.5055 41.3788 13.5634 41.117C10.545 40.2794 9.21904 38.9531 9.14926 36.6671C9.09691 35.6201 9.41096 34.5032 10.1089 33.8226C10.4752 36.8416 12.5166 38.7437 15.7268 39.0404L16.5294 39.1102L16.5643 38.3075C16.7039 34.1542 14.4706 32.7407 12.2723 31.9031C11.714 31.6937 11.1208 31.6413 10.5625 31.7984C8.45137 32.4266 7.54412 34.6777 7.6139 36.7194C7.73603 41.0996 11.8012 42.2339 13.1447 42.6003C14.0519 42.8446 15.0115 43.1587 15.0464 43.7695C15.0813 44.3279 14.2962 44.7293 13.4238 45.1307L13.1796 45.2354C12.0978 45.7414 10.7893 46.0032 9.37607 46.0032C8.64329 45.9857 7.77093 45.8287 6.79389 45.5495C6.096 45.3575 5.29343 44.9387 4.35128 44.293C3.9151 43.9964 3.54871 43.6125 3.21721 43.1762C3.35679 43.1064 3.49637 43.0366 3.65339 42.9319C6.27047 41.2915 7.10794 38.6216 5.99132 35.5677L5.71216 34.7999L4.96193 35.1314C3.11253 35.9342 2.10059 36.9812 1.55973 38.098C1.4376 36.5624 1.55973 35.0616 1.82144 33.8575C2.03081 32.8978 2.86827 32.7407 4.57809 32.6011C5.81684 32.5138 7.10794 32.4091 7.84072 31.4668C8.52116 30.5943 8.38158 29.4425 8.17221 28.4304C8.11987 28.1512 8.05008 27.872 7.96285 27.5928C7.24751 25.3765 5.43301 23.9805 2.76359 23.6664L1.96102 23.5791L1.92612 24.3993C1.69931 28.5002 3.84531 29.9835 6.00876 30.8735C5.57258 30.9956 5.03172 31.048 4.47341 31.0829C2.93806 31.205 0.826951 31.3621 0.33843 33.526C-0.394352 36.8241 -0.184986 43.0191 3.49637 45.532C3.51382 45.5495 3.51382 45.5495 3.53126 45.5669C3.93255 49.1443 5.01427 51.727 7.24751 54.397C9.04457 56.5434 11.051 58.0267 13.3191 58.8643C14.2089 59.1959 15.0638 59.4925 16.0234 59.7194C16.6341 59.859 17.3494 60.0161 18.0822 60.0161C18.3265 60.0161 18.5707 59.9986 18.815 59.9637C19.3908 59.8765 19.8967 59.6845 20.4027 59.4925C20.6295 59.4053 20.8563 59.318 21.0831 59.2482C21.6938 59.0563 22.1823 58.6375 22.4615 58.0965C22.7057 57.6079 22.7581 57.0669 22.601 56.5434C22.5661 56.4561 22.5312 56.3514 22.4963 56.2642C22.4615 56.1769 22.4266 56.1071 22.4266 56.0722C22.4091 55.9675 22.4091 55.5487 22.444 55.1822C22.5138 54.1352 22.6534 53.2976 22.8104 52.4774C22.9674 51.6223 23.107 50.8021 23.1244 49.8598C23.1244 49.441 23.2117 49.1443 23.2989 48.7604C23.2989 48.7255 23.3164 48.6731 23.3338 48.6382C23.3513 48.6731 23.3513 48.7255 23.3687 48.7604C23.4559 49.1443 23.5257 49.441 23.5432 49.8598C23.5606 50.7847 23.7002 51.6049 23.8572 52.4599C23.9968 53.2801 24.1538 54.1177 24.2236 55.1648C24.2411 55.4963 24.2411 55.9501 24.2411 56.0548C24.2236 56.1071 24.2062 56.1769 24.1713 56.2642C24.1364 56.3514 24.1015 56.4387 24.0666 56.5434C23.9096 57.0669 23.9445 57.6079 24.2062 58.0965C24.4853 58.6375 24.9913 59.0388 25.5845 59.2308C25.8113 59.3006 26.0381 59.3878 26.2824 59.4751C26.7884 59.6671 27.2943 59.859 27.8701 59.9463C28.1143 59.9812 28.3761 59.9986 28.6203 59.9986C29.3705 59.9986 30.0859 59.8416 30.6791 59.702C31.6387 59.4751 32.4936 59.161 33.4706 58.812C35.6515 58.0092 37.6754 56.5259 39.455 54.3795C41.6883 51.7096 42.7874 49.1094 43.1713 45.5146C46.8526 42.9842 47.062 36.8067 46.3292 33.5085C45.8058 31.3621 43.6947 31.205 42.1419 31.1003ZM39.8388 29.5298C39.8388 29.46 39.8388 29.3553 39.8563 29.2331C40.0482 27.1565 41.1823 25.8302 43.1713 25.3416C43.084 27.7149 41.8976 28.6921 39.961 29.4774C39.9261 29.5123 39.8737 29.5298 39.8388 29.5298ZM34.9885 33.5783C34.7617 35.6375 33.5928 36.9463 31.5863 37.3826C31.7434 35.0093 32.9298 34.0669 34.8839 33.334C34.9362 33.3166 34.9711 33.2991 35.006 33.2817C35.006 33.3689 35.006 33.4562 34.9885 33.5783ZM33.837 50.5927C33.0693 50.5927 32.4412 49.9645 32.4412 49.1967C32.4412 48.4288 33.0693 47.8006 33.837 47.8006C34.6047 47.8006 35.2328 48.4288 35.2328 49.1967C35.2328 49.9645 34.6047 50.5927 33.837 50.5927ZM11.714 33.334C13.6681 34.0844 14.8545 35.0093 15.0115 37.3826C13.0051 36.9463 11.8361 35.6375 11.6093 33.5783C11.5919 33.4562 11.5919 33.3515 11.5919 33.2817C11.6268 33.2991 11.6791 33.3166 11.714 33.334ZM12.7608 47.8006C13.5285 47.8006 14.1566 48.4288 14.1566 49.1967C14.1566 49.9645 13.5285 50.5927 12.7608 50.5927C11.9931 50.5927 11.365 49.9645 11.365 49.1967C11.365 48.4288 11.9931 47.8006 12.7608 47.8006ZM3.44403 25.3591C5.43301 25.8477 6.56707 27.1739 6.75899 29.2506C6.77644 29.3727 6.77644 29.4774 6.77644 29.5472C6.74155 29.5298 6.6892 29.5123 6.65431 29.4949C4.70022 28.6921 3.53126 27.7324 3.44403 25.3591ZM2.58912 41.7801C2.58912 41.7452 2.57167 41.6929 2.57167 41.6405C2.3972 39.5639 2.72869 38.0806 4.80491 36.9114C5.27598 38.9008 4.61299 40.5237 2.85082 41.6231C2.74614 41.7103 2.6589 41.7452 2.58912 41.7801ZM44.0262 41.658C44.0262 41.7103 44.0087 41.7627 44.0087 41.7976C43.9389 41.7627 43.8517 41.7103 43.747 41.6405C41.9849 40.5411 41.3219 38.9182 41.7929 36.9289C43.8691 38.0806 44.2006 39.5639 44.0262 41.658Z" fill="#0E0E0E"/>
<path d="M29.3358 31.9726L29.5801 31.8854C31.0107 31.3967 32.2495 30.4893 33.0172 29.8087C33.2265 29.6342 33.401 29.4597 33.5929 29.3027C34.2385 28.7093 34.727 28.2556 35.5296 27.8543C35.9134 27.6623 36.0704 27.2086 35.8785 26.8247C35.6866 26.4407 35.233 26.3011 34.8491 26.4756C33.8546 26.9643 33.2265 27.5401 32.5635 28.1509C32.3891 28.308 32.2146 28.465 32.0227 28.6395C31.3422 29.2329 30.2954 30.0181 29.0915 30.4195L28.8647 30.4893C27.8702 30.8209 26.8583 31.1524 26.2128 32.3391C25.637 33.4036 25.5498 34.7822 26.0208 36.0212C26.1779 36.4574 26.3349 36.9111 26.457 37.4172C27.0153 39.4938 27.1375 41.6403 26.8758 44.3626C26.8583 44.6243 26.8234 44.9035 26.806 45.2177C26.7536 45.7412 26.7013 46.317 26.6489 46.7708C26.5966 47.1896 26.5094 47.7305 26.6489 48.2715C26.7187 48.5158 26.7711 48.7252 26.8234 48.9346C26.9281 49.3011 27.0153 49.5454 27.0328 49.9817C27.0851 50.7146 27.12 51.4301 27.12 52.1979C27.12 52.4248 27.1026 52.6865 27.0502 53.053L26.9804 54.6236C26.9804 55.0075 26.963 55.4786 27.2073 55.9498C27.4515 56.421 27.9575 56.8223 28.5507 57.2412L28.7252 57.3633C28.8647 57.468 29.0218 57.5204 29.1788 57.5204C29.4056 57.5204 29.6499 57.4157 29.7894 57.2063C30.0337 56.8747 29.9639 56.3861 29.6324 56.1418L29.4405 56.0022C29.2137 55.8277 28.6554 55.4437 28.5681 55.2518C28.4983 55.1296 28.4983 54.8853 28.5158 54.6585L28.5681 53.2101C28.6205 52.8436 28.6554 52.512 28.6554 52.1979C28.6554 51.4126 28.6205 50.6448 28.5681 49.877C28.5332 49.2837 28.4111 48.8997 28.289 48.4984C28.2366 48.3239 28.1843 48.1494 28.132 47.9225C28.0622 47.6433 28.1145 47.3117 28.1494 46.9802C28.2192 46.509 28.2715 45.9157 28.3064 45.3747C28.3239 45.0781 28.3588 44.7988 28.3762 44.5371C28.6728 41.6228 28.5332 39.3019 27.9051 37.0333C27.7656 36.4923 27.5911 35.9863 27.4166 35.5151C27.12 34.6949 27.1549 33.7875 27.5213 33.0894C27.8877 32.4787 28.3937 32.2867 29.3358 31.9726Z" fill="#0E0E0E"/>
<path d="M20.1585 37.453C20.2807 36.9993 20.4377 36.5282 20.5947 36.057C21.0483 34.8355 20.9785 33.4568 20.4028 32.3749C19.7572 31.1883 18.7453 30.8567 17.7508 30.5251L17.524 30.4553C16.3202 30.054 15.2733 29.2687 14.5929 28.6754C14.401 28.5009 14.209 28.3438 14.0346 28.1693C13.3716 27.5585 12.7435 26.9827 11.749 26.494C11.3652 26.3021 10.9115 26.4591 10.7196 26.843C10.5277 27.227 10.6847 27.6807 11.0685 27.8726C11.8711 28.274 12.3596 28.7277 13.0052 29.3036C13.1971 29.4781 13.3716 29.6526 13.5809 29.8271C14.3661 30.5077 15.5874 31.4151 17.018 31.9037L17.2623 31.991C18.2044 32.3051 18.7104 32.4971 19.0594 33.1253C19.4257 33.8233 19.4781 34.7133 19.164 35.5509C18.9896 36.0395 18.8151 36.5456 18.6755 37.0691C18.0649 39.3377 17.9253 41.6412 18.2044 44.5729L18.2742 45.3582C18.3266 45.9341 18.3789 46.5274 18.4487 47.016C18.501 47.365 18.5359 47.6966 18.4662 47.9583C18.4138 48.1852 18.3615 48.3597 18.3091 48.5342C18.187 48.9356 18.0649 49.3195 18.03 49.9128C17.9776 50.6457 17.9427 51.4136 17.9427 52.2338C17.9427 52.5479 17.9776 52.8794 18.0125 53.1586L18.0823 54.6768C18.0823 54.9037 18.0823 55.148 18.03 55.2876C17.9253 55.4796 17.367 55.8809 17.1576 56.038L16.9657 56.1776C16.6342 56.4219 16.547 56.9105 16.8087 57.2421C16.9657 57.4515 17.1925 57.5562 17.4193 57.5562C17.5763 57.5562 17.7334 57.5038 17.873 57.3991L18.0474 57.277C18.6406 56.8582 19.1466 56.4568 19.3909 55.9856C19.6351 55.5145 19.6177 55.0084 19.6177 54.6245L19.5479 53.0016C19.4955 52.7224 19.4781 52.4606 19.4781 52.2338C19.4781 51.4485 19.513 50.733 19.5653 50.0175C19.6002 49.5813 19.67 49.3195 19.7921 48.9705C19.8445 48.7785 19.9143 48.5691 19.9666 48.3248C20.1062 47.7838 20.0364 47.2603 19.9666 46.8066C19.8968 46.3354 19.8445 45.7596 19.8096 45.2186L19.7398 44.4159C19.4781 41.6587 19.6002 39.5122 20.1585 37.453Z" fill="#0E0E0E"/>
</svg>
